<?xml version="1.0" encoding="UTF-8"?>
<svg id="Calque_1" data-name="Calque 1" xmlns="http://www.w3.org/2000/svg" viewBox="0 0 94.1 94.11">
  <defs>
    <style>
      .cls-1 {
        fill: none;
        stroke: #000;
        stroke-miterlimit: 10;
        stroke-width: 1.01px;
      }
    </style>
  </defs>
  <path class="cls-1" d="m87.51,57.09c-.29-.31-.51-.69-.63-1.11-.1-.42-.12-.88-.06-1.37.1-.71.48-1.33,1.04-1.76.51-.39,1.02-.79,1.53-1.2.51-.42.93-.85,1.41-1.3.93-.89,1.86-1.85,2.79-2.85l-.2-4.8c-.14-1.45-.41-2.88-.62-4.32-.69.64-1.39,1.26-2.09,1.86-.75.63-1.69.66-2.47.32-.79-.35-1.36-1.07-1.58-2.03-.06-.23-.09-.45-.09-.68,0-.47.12-.93.36-1.34,1.34-2.23,2.25-4.57,3.2-7.16-.55-1.35-1.24-2.64-1.86-3.96-.65-1.29-1.48-2.5-2.21-3.76-.4.86-.81,1.7-1.23,2.52-.45.87-1.3,1.26-2.15,1.24-.87,0-1.67-.46-2.24-1.27-.36-.47-.54-1.04-.54-1.62,0-.12,0-.24.02-.36.39-2.56.33-5.07.23-7.83-1.04-1.01-2.14-1.97-3.21-2.96-1.13-.92-2.32-1.76-3.48-2.64-.04.95-.1,1.89-.19,2.81-.08.98-.73,1.65-1.52,1.96-.39.15-.83.2-1.26.15-.43-.06-.87-.23-1.3-.47-.61-.37-1.04-.95-1.22-1.64-.17-.62-.34-1.24-.53-1.87-.2-.6-.43-1.19-.66-1.79-.47-1.21-.99-2.44-1.57-3.69l-4.1-1.5c-1.4-.4-2.82-.74-4.23-1.11.33.89.63,1.78.9,2.66.29.94-.04,1.81-.66,2.39-.31.29-.69.51-1.11.63-.42.1-.88.12-1.37.06-.71-.1-1.33-.48-1.76-1.04-.39-.51-.79-1.02-1.2-1.53-.42-.5-.85-.93-1.3-1.41-.89-.93-1.85-1.86-2.85-2.79l-.44-.02-4.36.22c-1.45.14-2.88.41-4.32.62.64.69,1.26,1.39,1.86,2.09.63.76.66,1.69.32,2.47-.35.79-1.07,1.36-2.03,1.58-.23.06-.45.09-.68.09-.47,0-.93-.12-1.34-.36-2.23-1.34-4.57-2.25-7.16-3.2-1.35.55-2.64,1.24-3.96,1.86-1.29.65-2.5,1.48-3.76,2.21.86.4,1.7.81,2.52,1.23.87.45,1.26,1.3,1.24,2.15-.01.87-.46,1.67-1.27,2.24-.47.36-1.04.54-1.62.54-.12,0-.23,0-.35-.02-2.57-.38-5.08-.33-7.84-.23-1.01,1.04-1.97,2.14-2.96,3.21-.92,1.13-1.76,2.32-2.64,3.48.95.04,1.89.1,2.81.19.98.08,1.65.73,1.96,1.52.15.39.2.83.15,1.26-.06.43-.23.87-.47,1.3-.37.61-.95,1.04-1.64,1.22-.62.17-1.24.34-1.87.53-.6.2-1.19.43-1.79.66-1.21.47-2.44.99-3.69,1.57l-1.5,4.1c-.4,1.4-.74,2.82-1.11,4.23.89-.32,1.78-.63,2.66-.9.94-.29,1.81.04,2.39.66.3.31.51.69.63,1.11.1.42.12.88.06,1.37-.1.71-.48,1.33-1.04,1.76-.51.39-1.02.79-1.52,1.2-.51.42-.94.85-1.42,1.3-.93.89-1.86,1.85-2.79,2.85l-.02.44.22,4.36c.14,1.45.41,2.88.62,4.32.69-.64,1.39-1.26,2.09-1.86.76-.63,1.69-.66,2.47-.32.79.35,1.36,1.07,1.58,2.03.06.23.09.45.09.68,0,.47-.12.93-.36,1.34-1.34,2.23-2.25,4.57-3.2,7.16.55,1.35,1.24,2.64,1.86,3.96.65,1.29,1.48,2.5,2.21,3.76.4-.86.81-1.7,1.23-2.52.45-.87,1.3-1.26,2.15-1.24.87.01,1.67.46,2.24,1.27.43.57.61,1.27.52,1.98-.38,2.56-.33,5.07-.23,7.83,1.04,1.01,2.14,1.97,3.21,2.96,1.13.92,2.32,1.76,3.48,2.64.04-.95.1-1.89.19-2.81.08-.98.73-1.65,1.52-1.96.4-.15.83-.2,1.26-.15.43.06.87.23,1.3.47.61.37,1.04.95,1.22,1.64.17.62.34,1.24.53,1.87.2.6.43,1.19.66,1.79.47,1.21.99,2.44,1.57,3.69l4.1,1.5c1.4.4,2.82.74,4.23,1.11-.32-.89-.62-1.78-.9-2.66-.29-.94.04-1.81.66-2.39.31-.29.69-.51,1.11-.63.42-.1.88-.12,1.37-.06.71.1,1.33.48,1.76,1.04.39.51.79,1.02,1.2,1.53.42.5.85.93,1.3,1.41.89.93,1.85,1.86,2.86,2.79l.43.02,4.36-.22c1.45-.14,2.88-.41,4.32-.62-.64-.69-1.26-1.39-1.86-2.09-.63-.76-.66-1.69-.32-2.47.35-.79,1.07-1.36,2.03-1.58.23-.06.45-.09.68-.09.47,0,.93.12,1.34.36,2.23,1.34,4.57,2.25,7.16,3.2,1.35-.55,2.64-1.24,3.96-1.86,1.29-.65,2.5-1.48,3.76-2.21-.86-.4-1.7-.81-2.52-1.23-.87-.45-1.26-1.3-1.24-2.15.01-.87.46-1.67,1.27-2.24.47-.36,1.04-.54,1.62-.54.12,0,.24,0,.36.02,2.56.38,5.07.33,7.83.23,1.01-1.04,1.97-2.14,2.96-3.21.92-1.13,1.76-2.32,2.64-3.48-.95-.04-1.89-.1-2.8-.19-.99-.08-1.66-.73-1.96-1.52-.16-.39-.21-.83-.16-1.26.06-.43.23-.87.47-1.3.37-.61.95-1.04,1.64-1.22.62-.17,1.24-.34,1.87-.53.6-.2,1.19-.43,1.79-.66,1.21-.47,2.44-.99,3.69-1.57l1.5-4.1c.4-1.4.74-2.82,1.11-4.23-.89.32-1.78.63-2.66.9-.94.29-1.81-.04-2.39-.66Zm-40.46-.76c-5.12,0-9.27-4.15-9.27-9.27s4.15-9.27,9.27-9.27,9.27,4.15,9.27,9.27-4.15,9.27-9.27,9.27Z"/>
</svg>